<svg xmlns="http://www.w3.org/2000/svg" xmlns:xlink="http://www.w3.org/1999/xlink" xmlns:lucid="lucid" width="800" height="362"><g transform="translate(-700 -280)" lucid:page-tab-id="0_0"><path d="M720 340h120v60H720z" stroke="#000" stroke-width="2" fill="#fff" fill-opacity="0"/><use xlink:href="#a" transform="matrix(1,0,0,1,725,345) translate(0 21.885850694444443)"/><use xlink:href="#b" transform="matrix(1,0,0,1,725,345) translate(0 37.44140625)"/><use xlink:href="#c" transform="matrix(1,0,0,1,725,345) translate(56.00911458333334 37.44140625)"/><path d="M880 340h120v60H880z" stroke="#000" stroke-width="2" fill="#fff" fill-opacity="0"/><use xlink:href="#d" transform="matrix(1,0,0,1,885,345) translate(0 21.885850694444443)"/><use xlink:href="#b" transform="matrix(1,0,0,1,885,345) translate(0 37.44140625)"/><use xlink:href="#e" transform="matrix(1,0,0,1,885,345) translate(56.00911458333334 37.44140625)"/><path d="M1040 300h120v60h-120z" stroke="#000" stroke-width="2" fill="#fff" fill-opacity="0"/><use xlink:href="#f" transform="matrix(1,0,0,1,1045,305) translate(0 21.885850694444443)"/><use xlink:href="#b" transform="matrix(1,0,0,1,1045,305) translate(0 37.44140625)"/><use xlink:href="#g" transform="matrix(1,0,0,1,1045,305) translate(56.00911458333334 37.44140625)"/><path d="M1040 378h120v64h-120z" stroke="#000" stroke-width="2" fill="#fff" fill-opacity="0"/><use xlink:href="#f" transform="matrix(1,0,0,1,1045,383) translate(0 23.885850694444443)"/><use xlink:href="#b" transform="matrix(1,0,0,1,1045,383) translate(0 39.44140625)"/><use xlink:href="#h" transform="matrix(1,0,0,1,1045,383) translate(56.00911458333334 39.44140625)"/><path d="M878 370h-18.5" stroke="#000" stroke-width="2" fill="none"/><path d="M879 371h-1.03v-2H879z"/><path d="M844.24 370l14.26-4.64v9.28z" stroke="#000" stroke-width="2"/><path d="M1038 330.06l-.6.04-1.5.28-1.4.46-1.43.67-1.47.94-1.6 1.3-1.85 1.97-2.36 3.28-5.02 9.4-5.74 11.06" stroke="#000" stroke-width="2" fill="none"/><path d="M1039 331l-.96.06-.13-2 1.1-.06z"/><path d="M1003.6 368.05l8.6-12.28 5.57 7.4z" stroke="#000" stroke-width="2"/><path d="M1038 409.94l-.6-.04-1.5-.28-1.4-.46-1.43-.67-1.47-.94-1.6-1.3-1.85-1.97-2.36-3.28-5.02-9.4-5.74-11.06" stroke="#000" stroke-width="2" fill="none"/><path d="M1039 409v2l-1.1-.07.14-2z"/><path d="M1003.6 371.95l14.17 4.87-5.57 7.4z" stroke="#000" stroke-width="2"/><path d="M720 520h120v60H720z" stroke="#000" stroke-width="2" fill="#fff" fill-opacity="0"/><use xlink:href="#a" transform="matrix(1,0,0,1,725,525) translate(0 21.885850694444443)"/><use xlink:href="#b" transform="matrix(1,0,0,1,725,525) translate(0 37.44140625)"/><use xlink:href="#c" transform="matrix(1,0,0,1,725,525) translate(56.00911458333334 37.44140625)"/><path d="M880 520h120v60H880z" stroke="#000" stroke-width="2" fill="#fff" fill-opacity="0"/><use xlink:href="#d" transform="matrix(1,0,0,1,885,525) translate(0 21.885850694444443)"/><use xlink:href="#b" transform="matrix(1,0,0,1,885,525) translate(0 37.44140625)"/><use xlink:href="#e" transform="matrix(1,0,0,1,885,525) translate(56.00911458333334 37.44140625)"/><path d="M1040 480h120v60h-120z" stroke="#000" stroke-width="2" fill="#fff" fill-opacity="0"/><use xlink:href="#f" transform="matrix(1,0,0,1,1045,485) translate(0 21.885850694444443)"/><use xlink:href="#b" transform="matrix(1,0,0,1,1045,485) translate(0 37.44140625)"/><use xlink:href="#g" transform="matrix(1,0,0,1,1045,485) translate(56.00911458333334 37.44140625)"/><path d="M1040 558h120v64h-120z" stroke="#000" stroke-width="2" fill="#e5e5e5"/><use xlink:href="#f" transform="matrix(1,0,0,1,1045,563) translate(0 23.885850694444443)"/><use xlink:href="#b" transform="matrix(1,0,0,1,1045,563) translate(0 39.44140625)"/><use xlink:href="#h" transform="matrix(1,0,0,1,1045,563) translate(56.00911458333334 39.44140625)"/><path d="M878 550h-18.5" stroke="#000" stroke-width="2" fill="none"/><path d="M879 551h-1.03v-2H879z"/><path d="M844.24 550l14.26-4.64v9.28z" stroke="#000" stroke-width="2"/><path d="M1038 510.06l-.6.04-1.5.28-1.4.46-1.43.67-1.47.94-1.6 1.3-1.85 1.97-2.36 3.28-5.02 9.4-5.74 11.06" stroke="#000" stroke-width="2" fill="none"/><path d="M1039 511l-.96.06-.13-2 1.1-.06z"/><path d="M1003.6 548.05l8.6-12.28 5.57 7.4z" stroke="#000" stroke-width="2"/><path d="M1038 589.94l-.6-.04-1.5-.28-1.4-.46-1.43-.67-1.47-.94-1.6-1.3-1.85-1.97-2.36-3.28-5.02-9.4-5.74-11.06" stroke="#000" stroke-width="2" fill="none"/><path d="M1039 589v2l-1.1-.07.14-2z"/><path d="M1003.6 551.95l14.17 4.87-5.57 7.4z" stroke="#000" stroke-width="2"/><path d="M1200 520h120v60h-120z" stroke="#000" stroke-width="2" fill="#fff" fill-opacity="0"/><g><use xlink:href="#i" transform="matrix(1,0,0,1,1205,525) translate(0 21.885850694444443)"/><use xlink:href="#b" transform="matrix(1,0,0,1,1205,525) translate(0 37.44140625)"/><use xlink:href="#j" transform="matrix(1,0,0,1,1205,525) translate(56.00911458333334 37.44140625)"/></g><path d="M1198 549.94l-.6-.04-1.5-.28-1.4-.46-1.43-.67-1.47-.94-1.6-1.3-1.85-1.97-2.36-3.28-5.02-9.4-5.74-11.06" stroke="#000" stroke-width="2" fill="none"/><path d="M1199 549v2l-1.1-.07.14-2z"/><path d="M1163.6 511.95l14.17 4.87-5.57 7.4z" stroke="#000" stroke-width="2"/><path d="M1360 520h120v60h-120z" stroke="#000" stroke-width="2" fill="#fff" fill-opacity="0"/><g><use xlink:href="#k" transform="matrix(1,0,0,1,1365,525) translate(0 21.885850694444443)"/><use xlink:href="#b" transform="matrix(1,0,0,1,1365,525) translate(0 37.44140625)"/><use xlink:href="#l" transform="matrix(1,0,0,1,1365,525) translate(56.00911458333334 37.44140625)"/></g><path d="M1358 550h-18.5" stroke="#000" stroke-width="2" fill="none"/><path d="M1359 551h-1.03v-2h1.03z"/><path d="M1324.24 550l14.26-4.64v9.28z" stroke="#000" stroke-width="2"/><path d="M720 400h240v60H720z" stroke="#000" stroke-opacity="0" stroke-width="2" fill="#fff" fill-opacity="0"/><g><use xlink:href="#m" transform="matrix(1,0,0,1,725,405) translate(0 14.4)"/><use xlink:href="#n" transform="matrix(1,0,0,1,725,405) translate(16.450000000000003 14.4)"/><use xlink:href="#o" transform="matrix(1,0,0,1,725,405) translate(50.85 14.4)"/><use xlink:href="#p" transform="matrix(1,0,0,1,725,405) translate(112.15 14.4)"/><use xlink:href="#q" transform="matrix(1,0,0,1,725,405) translate(129.6 14.4)"/></g><path d="M720 460h240v60H720z" stroke="#000" stroke-opacity="0" stroke-width="2" fill="#fff" fill-opacity="0"/><g><use xlink:href="#r" transform="matrix(1,0,0,1,725,465) translate(0 14.4)"/><use xlink:href="#s" transform="matrix(1,0,0,1,725,465) translate(46.1 14.4)"/><use xlink:href="#t" transform="matrix(1,0,0,1,725,465) translate(72.55 14.4)"/><use xlink:href="#u" transform="matrix(1,0,0,1,725,465) translate(140.95 14.4)"/><use xlink:href="#v" transform="matrix(1,0,0,1,725,465) translate(172.39999999999998 14.4)"/><use xlink:href="#w" transform="matrix(1,0,0,1,725,465) translate(188.89999999999998 14.4)"/><use xlink:href="#x" transform="matrix(1,0,0,1,725,465) translate(0 36)"/><use xlink:href="#v" transform="matrix(1,0,0,1,725,465) translate(73.35 36)"/><use xlink:href="#y" transform="matrix(1,0,0,1,725,465) translate(89.85 36)"/></g><defs><path d="M648-963c-190 6-283 138-283 336V0H185v-1484h181c-2 197 6 404-9 587h3c62-120 159-205 339-205 242 0 351 135 350 381V0H868v-695c1-168-57-273-220-268" id="z"/><path d="M617-1102c355 0 481 238 477 599H322c5 222 84 388 301 388 144 0 244-59 284-166l158 45C1002-72 854 20 623 20c-342 0-490-220-490-568 0-346 151-554 484-554zm291 461c-18-192-90-328-289-328-194 0-287 128-295 328h584" id="A"/><path d="M745-142h380V0H143v-142h422v-798H246v-142h499v940zM545-1292v-192h200v192H545" id="B"/><path d="M1048-32c-2 300-135 456-433 456-222-1-358-88-400-267l184-25c22 99 100 157 222 156 184-2 248-125 248-315 0-64 3-133-2-194C807-100 706-13 524-12c-306 0-381-228-381-537 0-318 85-550 400-550 164 0 271 83 325 202h3c1-60 3-134 12-185h171c-13 339-4 702-6 1050zM585-145c210-8 284-178 284-406 0-192-52-331-177-392-33-16-69-22-104-22-223 2-259 184-259 414 0 229 31 415 256 406" id="C"/><path d="M682 16c-209 0-323-80-324-285v-671H190v-142h170l58-282h120v282h432v142H538v652c2 114 60 155 182 155 106 0 209-16 297-34v137C921-4 806 16 682 16" id="D"/><path d="M116-856v-148h995v148H116zm0 512v-148h995v148H116" id="E"/><path d="M148-1120c216-7 379-89 463-229h166v1204h353V0H157v-145h439v-1021c-79 124-254 184-448 194v-148" id="F"/><path d="M353-779c69-51 166-92 291-90 218 3 357 100 423 255 21 52 32 109 32 170 0 305-189 464-500 464-268 0-424-116-471-335l182-21c35 130 124 212 293 209 198-4 309-114 309-313 0-182-118-282-305-282-120 0-198 45-262 101H169l47-728h801v145H382" id="G"/><g id="a"><use transform="matrix(0.007595486111111112,0,0,0.007595486111111112,0,0)" xlink:href="#z"/><use transform="matrix(0.007595486111111112,0,0,0.007595486111111112,9.334852430555557,0)" xlink:href="#A"/><use transform="matrix(0.007595486111111112,0,0,0.007595486111111112,18.669704861111114,0)" xlink:href="#B"/><use transform="matrix(0.007595486111111112,0,0,0.007595486111111112,28.00455729166667,0)" xlink:href="#C"/><use transform="matrix(0.007595486111111112,0,0,0.007595486111111112,37.33940972222223,0)" xlink:href="#z"/><use transform="matrix(0.007595486111111112,0,0,0.007595486111111112,46.674262152777786,0)" xlink:href="#D"/><use transform="matrix(0.007595486111111112,0,0,0.007595486111111112,56.00911458333334,0)" xlink:href="#E"/><use transform="matrix(0.007595486111111112,0,0,0.007595486111111112,65.3439670138889,0)" xlink:href="#F"/><use transform="matrix(0.007595486111111112,0,0,0.007595486111111112,74.67881944444446,0)" xlink:href="#G"/></g><path d="M873-819c-18-114-119-146-250-146-163 0-245 50-245 151 0 151 170 148 294 185 182 54 388 94 388 320 0 240-189 325-439 329-245 4-410-69-454-268l159-31c24 133 136 168 295 165 144-2 270-31 270-171 0-164-195-160-331-202-167-52-350-87-350-299 0-218 173-315 413-313 220 2 373 77 412 260" id="H"/><path d="M1000-272c3 95 12 159 101 161 21 0 41-3 59-7V-6c-44 10-86 16-139 16-141 2-191-84-197-217h-6C748-76 648 20 446 20c-207 0-318-120-318-322 0-266 194-348 454-354l236-4c12-191-40-305-222-305-140 0-220 47-232 172l-188-17c33-204 181-292 423-292 255 0 401 118 401 364v466zm-683-27c0 109 63 184 175 182 166-3 259-96 306-217 24-65 20-120 20-200-232 7-501-28-501 235" id="I"/><g id="b"><use transform="matrix(0.007595486111111112,0,0,0.007595486111111112,0,0)" xlink:href="#H"/><use transform="matrix(0.007595486111111112,0,0,0.007595486111111112,9.334852430555557,0)" xlink:href="#D"/><use transform="matrix(0.007595486111111112,0,0,0.007595486111111112,18.669704861111114,0)" xlink:href="#I"/><use transform="matrix(0.007595486111111112,0,0,0.007595486111111112,28.00455729166667,0)" xlink:href="#D"/><use transform="matrix(0.007595486111111112,0,0,0.007595486111111112,37.33940972222223,0)" xlink:href="#A"/></g><path d="M614-1226c-167 1-283 53-283 213 0 183 186 193 334 234 230 63 463 120 463 409 0 286-219 387-518 390C309 23 131-98 79-338l185-37c34 165 149 248 351 246 184-2 324-58 324-238 0-203-207-221-372-266-210-57-422-111-422-377 0-267 201-356 470-360 279-5 430 101 480 324l-188 33c-28-141-121-215-293-213" id="J"/><g id="c"><use transform="matrix(0.007595486111111112,0,0,0.007595486111111112,0,0)" xlink:href="#E"/><use transform="matrix(0.007595486111111112,0,0,0.007595486111111112,9.334852430555557,0)" xlink:href="#J"/><use transform="matrix(0.005316840277777778,0,0,0.005316840277777778,18.669704861111114,2.17724609375)" xlink:href="#F"/><use transform="matrix(0.005316840277777778,0,0,0.005316840277777778,25.2041015625,2.17724609375)" xlink:href="#G"/></g><path d="M672-881c271 0 424 163 424 435 0 291-160 466-455 466-367 0-490-287-490-662 0-324 85-568 293-680 129-70 351-59 460 16 73 50 125 123 153 223l-172 31c-31-108-107-172-232-172-259 0-316 252-323 529 59-113 178-186 342-186zm-37 756c186 0 278-124 278-313s-96-304-284-304c-163 0-281 93-281 261 0 157 65 270 168 327 35 19 75 29 119 29" id="K"/><g id="d"><use transform="matrix(0.007595486111111112,0,0,0.007595486111111112,0,0)" xlink:href="#z"/><use transform="matrix(0.007595486111111112,0,0,0.007595486111111112,9.334852430555557,0)" xlink:href="#A"/><use transform="matrix(0.007595486111111112,0,0,0.007595486111111112,18.669704861111114,0)" xlink:href="#B"/><use transform="matrix(0.007595486111111112,0,0,0.007595486111111112,28.00455729166667,0)" xlink:href="#C"/><use transform="matrix(0.007595486111111112,0,0,0.007595486111111112,37.33940972222223,0)" xlink:href="#z"/><use transform="matrix(0.007595486111111112,0,0,0.007595486111111112,46.674262152777786,0)" xlink:href="#D"/><use transform="matrix(0.007595486111111112,0,0,0.007595486111111112,56.00911458333334,0)" xlink:href="#E"/><use transform="matrix(0.007595486111111112,0,0,0.007595486111111112,65.3439670138889,0)" xlink:href="#F"/><use transform="matrix(0.007595486111111112,0,0,0.007595486111111112,74.67881944444446,0)" xlink:href="#K"/></g><g id="e"><use transform="matrix(0.007595486111111112,0,0,0.007595486111111112,0,0)" xlink:href="#E"/><use transform="matrix(0.007595486111111112,0,0,0.007595486111111112,9.334852430555557,0)" xlink:href="#J"/><use transform="matrix(0.005316840277777778,0,0,0.005316840277777778,18.669704861111114,2.17724609375)" xlink:href="#F"/><use transform="matrix(0.005316840277777778,0,0,0.005316840277777778,25.2041015625,2.17724609375)" xlink:href="#K"/></g><path d="M1069-1210C890-948 720-664 634-316c-25 105-38 210-38 316H408c9-385 153-667 302-925 57-98 120-190 185-279H158v-145h911v139" id="L"/><g id="f"><use transform="matrix(0.007595486111111112,0,0,0.007595486111111112,0,0)" xlink:href="#z"/><use transform="matrix(0.007595486111111112,0,0,0.007595486111111112,9.334852430555557,0)" xlink:href="#A"/><use transform="matrix(0.007595486111111112,0,0,0.007595486111111112,18.669704861111114,0)" xlink:href="#B"/><use transform="matrix(0.007595486111111112,0,0,0.007595486111111112,28.00455729166667,0)" xlink:href="#C"/><use transform="matrix(0.007595486111111112,0,0,0.007595486111111112,37.33940972222223,0)" xlink:href="#z"/><use transform="matrix(0.007595486111111112,0,0,0.007595486111111112,46.674262152777786,0)" xlink:href="#D"/><use transform="matrix(0.007595486111111112,0,0,0.007595486111111112,56.00911458333334,0)" xlink:href="#E"/><use transform="matrix(0.007595486111111112,0,0,0.007595486111111112,65.3439670138889,0)" xlink:href="#F"/><use transform="matrix(0.007595486111111112,0,0,0.007595486111111112,74.67881944444446,0)" xlink:href="#L"/></g><g id="g"><use transform="matrix(0.007595486111111112,0,0,0.007595486111111112,0,0)" xlink:href="#E"/><use transform="matrix(0.007595486111111112,0,0,0.007595486111111112,9.334852430555557,0)" xlink:href="#J"/><use transform="matrix(0.005316840277777778,0,0,0.005316840277777778,18.669704861111114,2.17724609375)" xlink:href="#F"/><use transform="matrix(0.005316840277777778,0,0,0.005316840277777778,25.2041015625,2.17724609375)" xlink:href="#L"/></g><path d="M684-845H543l-41-639h224" id="M"/><g id="h"><use transform="matrix(0.007595486111111112,0,0,0.007595486111111112,0,0)" xlink:href="#E"/><use transform="matrix(0.007595486111111112,0,0,0.007595486111111112,9.334852430555557,0)" xlink:href="#J"/><use transform="matrix(0.007595486111111112,0,0,0.007595486111111112,18.669704861111114,0)" xlink:href="#M"/><use transform="matrix(0.005316840277777778,0,0,0.005316840277777778,28.00455729166667,2.17724609375)" xlink:href="#F"/><use transform="matrix(0.005316840277777778,0,0,0.005316840277777778,34.53895399305556,2.17724609375)" xlink:href="#L"/></g><path d="M809-709c168 33 285 134 285 331 0 277-191 398-480 398-287 0-481-120-481-396 0-192 118-296 281-331v-4c-145-39-248-139-248-313 0-238 192-346 444-346 211 0 357 75 422 217 19 41 27 86 27 131 0 172-101 274-250 309v4zm-197-70c168 0 260-73 260-233 0-158-100-224-262-224-160 0-260 68-260 224 0 155 97 232 262 233zm4 664c194 1 291-91 291-280 0-172-115-249-297-249-178 0-291 85-291 253 0 186 106 275 297 276" id="N"/><g id="i"><use transform="matrix(0.007595486111111112,0,0,0.007595486111111112,0,0)" xlink:href="#z"/><use transform="matrix(0.007595486111111112,0,0,0.007595486111111112,9.334852430555557,0)" xlink:href="#A"/><use transform="matrix(0.007595486111111112,0,0,0.007595486111111112,18.669704861111114,0)" xlink:href="#B"/><use transform="matrix(0.007595486111111112,0,0,0.007595486111111112,28.00455729166667,0)" xlink:href="#C"/><use transform="matrix(0.007595486111111112,0,0,0.007595486111111112,37.33940972222223,0)" xlink:href="#z"/><use transform="matrix(0.007595486111111112,0,0,0.007595486111111112,46.674262152777786,0)" xlink:href="#D"/><use transform="matrix(0.007595486111111112,0,0,0.007595486111111112,56.00911458333334,0)" xlink:href="#E"/><use transform="matrix(0.007595486111111112,0,0,0.007595486111111112,65.3439670138889,0)" xlink:href="#F"/><use transform="matrix(0.007595486111111112,0,0,0.007595486111111112,74.67881944444446,0)" xlink:href="#N"/></g><g id="j"><use transform="matrix(0.007595486111111112,0,0,0.007595486111111112,0,0)" xlink:href="#E"/><use transform="matrix(0.007595486111111112,0,0,0.007595486111111112,9.334852430555557,0)" xlink:href="#J"/><use transform="matrix(0.005316840277777778,0,0,0.005316840277777778,18.669704861111114,2.17724609375)" xlink:href="#F"/><use transform="matrix(0.005316840277777778,0,0,0.005316840277777778,25.2041015625,2.17724609375)" xlink:href="#N"/></g><path d="M141-911c0-296 172-459 469-459 157 0 276 55 356 166s121 278 121 501c-1 324-87 567-297 677-134 70-367 56-475-22-71-52-117-126-145-226l172-27c34 111 103 176 238 176 187 0 261-138 304-298 16-65 24-141 25-227-59 121-177 199-350 199-275 0-418-184-418-460zm461 318c168 0 289-96 289-269 0-158-59-275-163-332-36-20-77-30-124-30-187 0-280 125-280 313s90 318 278 318" id="O"/><g id="k"><use transform="matrix(0.007595486111111112,0,0,0.007595486111111112,0,0)" xlink:href="#z"/><use transform="matrix(0.007595486111111112,0,0,0.007595486111111112,9.334852430555557,0)" xlink:href="#A"/><use transform="matrix(0.007595486111111112,0,0,0.007595486111111112,18.669704861111114,0)" xlink:href="#B"/><use transform="matrix(0.007595486111111112,0,0,0.007595486111111112,28.00455729166667,0)" xlink:href="#C"/><use transform="matrix(0.007595486111111112,0,0,0.007595486111111112,37.33940972222223,0)" xlink:href="#z"/><use transform="matrix(0.007595486111111112,0,0,0.007595486111111112,46.674262152777786,0)" xlink:href="#D"/><use transform="matrix(0.007595486111111112,0,0,0.007595486111111112,56.00911458333334,0)" xlink:href="#E"/><use transform="matrix(0.007595486111111112,0,0,0.007595486111111112,65.3439670138889,0)" xlink:href="#F"/><use transform="matrix(0.007595486111111112,0,0,0.007595486111111112,74.67881944444446,0)" xlink:href="#O"/></g><g id="l"><use transform="matrix(0.007595486111111112,0,0,0.007595486111111112,0,0)" xlink:href="#E"/><use transform="matrix(0.007595486111111112,0,0,0.007595486111111112,9.334852430555557,0)" xlink:href="#J"/><use transform="matrix(0.005316840277777778,0,0,0.005316840277777778,18.669704861111114,2.17724609375)" xlink:href="#F"/><use transform="matrix(0.005316840277777778,0,0,0.005316840277777778,25.2041015625,2.17724609375)" xlink:href="#O"/></g><path d="M81-9v9H4v-9l26-5 81-224h33l83 224 30 5v9h-99v-9l31-5-23-68H73L49-14zm38-203L78-98h82" id="P"/><use transform="matrix(0.05,0,0,0.05,0,0)" xlink:href="#P" id="m"/><path d="M103-236c-39-15-35 32-34 71h44v15H69v136l35 6v8H15v-8l25-6v-136H11v-9l29-7c-6-59 23-100 80-84v36c-15 2-12-14-17-22" id="Q"/><path d="M90-170c52 0 76 32 76 87 0 54-24 87-77 87-51 0-75-34-75-87 0-54 24-87 76-87zM89-10c39 0 46-35 46-73 0-39-7-73-46-73-39 1-44 34-44 73s6 72 44 73" id="R"/><path d="M57-145c16-10 35-24 60-25v45c-19 1-8-30-40-17l-20 6v124l29 4v8H7v-8l21-4v-141c-8-3-24 2-21-12h48" id="S"/><path d="M60-80l68-73c-7-3-20 0-17-12h58c3 13-13 9-20 12l-47 48 60 93c7 3 21-1 18 12h-68c-3-12 9-9 15-12L82-83 60-60v48c7 3 21-1 18 12H10v-8l21-4v-226l-24-4v-8h53v170" id="T"/><g id="n"><use transform="matrix(0.05,0,0,0.05,0,0)" xlink:href="#Q"/><use transform="matrix(0.05,0,0,0.05,5.95,0)" xlink:href="#R"/><use transform="matrix(0.05,0,0,0.05,14.949999999999998,0)" xlink:href="#S"/><use transform="matrix(0.05,0,0,0.05,20.9,0)" xlink:href="#T"/></g><path d="M45-84c0 64 52 80 104 63 1 25-30 25-55 25-56 0-80-32-80-88 0-76 62-98 131-80v46h-10c-5-15-4-31-23-35-47-10-67 21-67 69" id="U"/><path d="M124-13C89 8 26 15 26-45v-108c-8-3-24 2-21-12h50v118c-3 37 42 32 69 25v-131l-25-4v-8h54v153c8 3 24-2 21 12h-48" id="V"/><path d="M84-170c49 0 66 33 63 87H46c-8 60 38 80 95 63v10C128-2 108 4 88 4 34 4 14-29 14-84c-1-54 22-86 70-86zm33 73c12-57-57-82-69-24-1 7-2 15-2 24h71" id="W"/><path d="M13-81c0-71 46-101 114-85l-1-72-28-4v-8h57v238c8 3 24-2 21 12h-47l-2-12C80 23 13-1 13-81zm77-74c-37 1-44 33-45 74 0 38 9 66 45 66 14 0 27-3 36-7v-130c-10-1-24-3-36-3" id="X"/><g id="o"><use transform="matrix(0.05,0,0,0.05,0,0)" xlink:href="#R"/><use transform="matrix(0.05,0,0,0.05,9,0)" xlink:href="#U"/><use transform="matrix(0.05,0,0,0.05,16.95,0)" xlink:href="#U"/><use transform="matrix(0.05,0,0,0.05,24.9,0)" xlink:href="#V"/><use transform="matrix(0.05,0,0,0.05,33.9,0)" xlink:href="#S"/><use transform="matrix(0.05,0,0,0.05,39.85,0)" xlink:href="#W"/><use transform="matrix(0.05,0,0,0.05,47.800000000000004,0)" xlink:href="#X"/></g><path d="M32-163c41-10 102-14 102 39v112c8 3 24-2 21 12h-45l-4-17C83 13 3 13 13-46c-2-50 45-50 92-51 4-36-5-70-42-56-6 2-12 4-16 6-4 7 0 23-15 20v-36zM42-47c0 41 41 33 63 22v-59c-34 1-63-1-63 37" id="Y"/><path d="M54-38c-1 25 24 26 44 20v12C71 10 25 9 25-35v-115H4c-2-14 14-10 21-15l18-38h11v38h38v15H54v112" id="Z"/><g id="p"><use transform="matrix(0.05,0,0,0.05,0,0)" xlink:href="#Y"/><use transform="matrix(0.05,0,0,0.05,7.95,0)" xlink:href="#Z"/></g><path d="M126-119c3-38-42-31-69-25v132l23 4v8H7v-8l21-4v-226l-24-4v-8h53l-1 98c31-22 99-31 99 31v109c7 3 23-1 20 12h-71v-8l22-4v-107" id="aa"/><path d="M185-92v17H18v-17h167zm0-73v18H18v-18h167" id="ab"/><path d="M110-14l48 5v9H32v-9l48-5v-192l-48 17v-10l69-39h9v224" id="ac"/><path d="M35-180H24v-56h146v14L65 0H42l103-209H41" id="ad"/><g id="q"><use transform="matrix(0.05,0,0,0.05,0,0)" xlink:href="#aa"/><use transform="matrix(0.05,0,0,0.05,9,0)" xlink:href="#ab"/><use transform="matrix(0.05,0,0,0.05,19.15,0)" xlink:href="#ac"/><use transform="matrix(0.05,0,0,0.05,28.149999999999995,0)" xlink:href="#ad"/></g><path d="M111-226l-36 4v207c33-1 73 2 101-4l11-49h11l-3 68H10v-9l31-5v-208l-31-4v-10h101v10" id="ae"/><path d="M42-37c43 0 23 74-4 81-7 4-14 8-24 11V42c17-5 29-14 31-30C42-2 20 1 21-18c0-12 9-19 21-19" id="af"/><g id="r"><use transform="matrix(0.05,0,0,0.05,0,0)" xlink:href="#ae"/><use transform="matrix(0.05,0,0,0.05,10.950000000000001,0)" xlink:href="#Y"/><use transform="matrix(0.05,0,0,0.05,18.900000000000002,0)" xlink:href="#Z"/><use transform="matrix(0.05,0,0,0.05,23.900000000000002,0)" xlink:href="#W"/><use transform="matrix(0.05,0,0,0.05,31.85,0)" xlink:href="#S"/><use transform="matrix(0.05,0,0,0.05,37.1,0)" xlink:href="#af"/></g><g id="s"><use transform="matrix(0.05,0,0,0.05,0,0)" xlink:href="#Z"/><use transform="matrix(0.05,0,0,0.05,5,0)" xlink:href="#aa"/><use transform="matrix(0.05,0,0,0.05,14,0)" xlink:href="#W"/></g><path d="M41-130c7 48 86 23 86 84 0 56-69 57-112 41v-40c20 0 9 29 31 31 35 19 77-26 41-50-27-18-72-13-72-59 0-50 58-52 100-41v36c-19 1-8-25-28-25-21-7-50-1-46 23" id="ag"/><path d="M53-14c58 12 82-15 82-73 0-52-35-77-82-58v131zM89 4C64 4 42-2 24-9v-229l-24-4v-8h53l-1 94c48-33 114-4 114 69 0 57-23 91-77 91" id="ah"/><path d="M47-200c-23 0-25-39 0-38 13 0 18 7 20 19-1 11-8 19-20 19zM65-12l28 4v8H8v-8l28-4v-141l-24-4v-8h53v153" id="ai"/><path d="M125-118c4-37-41-34-68-26v132l23 4v8H8C5-13 21-9 28-12v-141c-7-3-23 1-20-12h47l2 13c31-23 98-29 98 31v109c7 3 23-1 20 12h-72v-8l22-4v-106" id="aj"/><g id="t"><use transform="matrix(0.05,0,0,0.05,0,0)" xlink:href="#ag"/><use transform="matrix(0.05,0,0,0.05,7,0)" xlink:href="#V"/><use transform="matrix(0.05,0,0,0.05,16,0)" xlink:href="#ah"/><use transform="matrix(0.05,0,0,0.05,25,0)" xlink:href="#U"/><use transform="matrix(0.05,0,0,0.05,32.95,0)" xlink:href="#aa"/><use transform="matrix(0.05,0,0,0.05,41.95,0)" xlink:href="#Y"/><use transform="matrix(0.05,0,0,0.05,49.900000000000006,0)" xlink:href="#ai"/><use transform="matrix(0.05,0,0,0.05,54.900000000000006,0)" xlink:href="#aj"/></g><g id="u"><use transform="matrix(0.05,0,0,0.05,0,0)" xlink:href="#Z"/><use transform="matrix(0.05,0,0,0.05,5,0)" xlink:href="#aa"/><use transform="matrix(0.05,0,0,0.05,14,0)" xlink:href="#Y"/><use transform="matrix(0.05,0,0,0.05,21.95,0)" xlink:href="#Z"/></g><g id="v"><use transform="matrix(0.05,0,0,0.05,0,0)" xlink:href="#ai"/><use transform="matrix(0.05,0,0,0.05,5,0)" xlink:href="#ag"/></g><g id="w"><use transform="matrix(0.05,0,0,0.05,0,0)" xlink:href="#aj"/><use transform="matrix(0.05,0,0,0.05,9,0)" xlink:href="#R"/><use transform="matrix(0.05,0,0,0.05,18,0)" xlink:href="#Z"/></g><path d="M166-85c3 67-44 102-111 85l1 64 29 4v9H6v-9l21-4v-217c-7-3-22 1-19-12h46l1 9c11-8 26-14 45-14 47 2 64 36 66 85zM56-13c53 14 83-14 78-72 7-53-33-79-78-60v132" id="ak"/><g id="x"><use transform="matrix(0.05,0,0,0.05,0,0)" xlink:href="#Y"/><use transform="matrix(0.05,0,0,0.05,7.95,0)" xlink:href="#ak"/><use transform="matrix(0.05,0,0,0.05,16.95,0)" xlink:href="#ak"/><use transform="matrix(0.05,0,0,0.05,25.950000000000003,0)" xlink:href="#W"/><use transform="matrix(0.05,0,0,0.05,33.9,0)" xlink:href="#aj"/><use transform="matrix(0.05,0,0,0.05,42.9,0)" xlink:href="#X"/><use transform="matrix(0.05,0,0,0.05,51.900000000000006,0)" xlink:href="#W"/><use transform="matrix(0.05,0,0,0.05,59.85,0)" xlink:href="#X"/></g><g id="y"><use transform="matrix(0.05,0,0,0.05,0,0)" xlink:href="#Y"/><use transform="matrix(0.05,0,0,0.05,7.95,0)" xlink:href="#ah"/><use transform="matrix(0.05,0,0,0.05,16.95,0)" xlink:href="#Y"/><use transform="matrix(0.05,0,0,0.05,24.9,0)" xlink:href="#aj"/><use transform="matrix(0.05,0,0,0.05,33.9,0)" xlink:href="#X"/><use transform="matrix(0.05,0,0,0.05,42.9,0)" xlink:href="#R"/><use transform="matrix(0.05,0,0,0.05,51.900000000000006,0)" xlink:href="#aj"/><use transform="matrix(0.05,0,0,0.05,60.900000000000006,0)" xlink:href="#W"/><use transform="matrix(0.05,0,0,0.05,68.85,0)" xlink:href="#X"/></g></defs></g></svg>