<svg xmlns="http://www.w3.org/2000/svg" xmlns:lucid="lucid" width="800" height="580"><g lucid:page-tab-id="0_0"><path d="M20 300h160v80H20zM220 300h160v80H220zM120 160h160v80H120zM420 300h160v80H420zM620 300h160v80H620zM520 160h160v80H520zM320 20h160v80H320zM49.75 469.75c0 5.38-4.37 9.75-9.75 9.75s-9.75-4.37-9.75-9.75S34.62 460 40 460s9.75 4.37 9.75 9.75z" stroke="#000" stroke-width="2" fill="#fff"/><path d="M20 460h40v78H20z" fill="none"/><path d="M40 479.5v27.3L60 538m-20-31.2L20 538m0-48.75h40" stroke="#000" stroke-width="2" fill="none"/><path d="M169.75 469.75c0 5.38-4.37 9.75-9.75 9.75s-9.75-4.37-9.75-9.75S154.62 460 160 460s9.75 4.37 9.75 9.75z" stroke="#000" stroke-width="2" fill="#fff"/><path d="M140 460h40v78h-40z" fill="none"/><path d="M160 479.5v27.3l20 31.2m-20-31.2L140 538m0-48.75h40M40 458v-38h60v-38" stroke="#000" stroke-width="2" fill="none"/><path d="M41 459.15l-1-.16-1 .13v-1.17h2zM101 382.03h-2V381h2z"/><path d="M160 458v-38h-60v-38" stroke="#000" stroke-width="2" fill="none"/><path d="M161 459.15l-1-.16-1 .13v-1.17h2zM101 382.03h-2V381h2z"/><path d="M249.75 468.75c0 5.38-4.37 9.75-9.75 9.75s-9.75-4.37-9.75-9.75S234.62 459 240 459s9.75 4.37 9.75 9.75z" stroke="#000" stroke-width="2" fill="#fff"/><path d="M220 459h40v78h-40z" fill="none"/><path d="M240 478.5v27.3l20 31.2m-20-31.2L220 537m0-48.75h40" stroke="#000" stroke-width="2" fill="none"/><path d="M369.75 468.75c0 5.38-4.37 9.75-9.75 9.75s-9.75-4.37-9.75-9.75S354.62 459 360 459s9.75 4.37 9.75 9.75z" stroke="#000" stroke-width="2" fill="#fff"/><path d="M340 459h40v78h-40z" fill="none"/><path d="M360 478.5v27.3l20 31.2m-20-31.2L340 537m0-48.75h40M240 457v-38h60v-38" stroke="#000" stroke-width="2" fill="none"/><path d="M241 458.15l-1-.16-1 .13v-1.17h2z"/><path d="M300 381.03V380M360 457v-38h-60v-38" stroke="#000" stroke-width="2" fill="none"/><path d="M361 458.15l-1-.16-1 .13v-1.17h2z"/><path d="M300 381.03V380" stroke="#000" stroke-width="2" fill="none"/><path d="M449.75 468.75c0 5.38-4.37 9.75-9.75 9.75s-9.75-4.37-9.75-9.75S434.62 459 440 459s9.75 4.37 9.75 9.75z" stroke="#000" stroke-width="2" fill="#fff"/><path d="M420 459h40v78h-40z" fill="none"/><path d="M440 478.5v27.3l20 31.2m-20-31.2L420 537m0-48.75h40" stroke="#000" stroke-width="2" fill="none"/><path d="M569.75 468.75c0 5.38-4.37 9.75-9.75 9.75s-9.75-4.37-9.75-9.75S554.62 459 560 459s9.75 4.37 9.75 9.75z" stroke="#000" stroke-width="2" fill="#fff"/><path d="M540 459h40v78h-40z" fill="none"/><path d="M560 478.5v27.3l20 31.2m-20-31.2L540 537m0-48.75h40M440 457v-38h60v-38" stroke="#000" stroke-width="2" fill="none"/><path d="M441 458.15l-1-.16-1 .13v-1.17h2z"/><path d="M500 381.03V380M560 457v-38h-60v-38" stroke="#000" stroke-width="2" fill="none"/><path d="M561 458.15l-1-.16-1 .13v-1.17h2z"/><path d="M500 381.03V380" stroke="#000" stroke-width="2" fill="none"/><path d="M649.75 468.75c0 5.38-4.37 9.75-9.75 9.75s-9.75-4.37-9.75-9.75S634.62 459 640 459s9.75 4.37 9.75 9.75z" stroke="#000" stroke-width="2" fill="#fff"/><path d="M620 459h40v78h-40z" fill="none"/><path d="M640 478.5v27.3l20 31.2m-20-31.2L620 537m0-48.75h40" stroke="#000" stroke-width="2" fill="none"/><path d="M769.75 468.75c0 5.38-4.37 9.75-9.75 9.75s-9.75-4.37-9.75-9.75S754.62 459 760 459s9.75 4.37 9.75 9.75z" stroke="#000" stroke-width="2" fill="#fff"/><path d="M740 459h40v78h-40z" fill="none"/><path d="M760 478.5v27.3l20 31.2m-20-31.2L740 537m0-48.75h40M640 457v-38h60v-38" stroke="#000" stroke-width="2" fill="none"/><path d="M641 458.15l-1-.16-1 .13v-1.17h2z"/><path d="M700 381.03V380M760 457v-38h-60v-38" stroke="#000" stroke-width="2" fill="none"/><path d="M761 458.15l-1-.16-1 .13v-1.17h2z"/><path d="M700 381.03V380M100 298v-28h100v-10.5" stroke="#000" stroke-width="2" fill="none"/><path d="M101 299h-2v-1.03h2z"/><path d="M200 244.24l4.64 14.26h-9.28z" stroke="#000" stroke-width="2"/><path d="M300 298v-28H200v-10.5" stroke="#000" stroke-width="2" fill="none"/><path d="M301 299h-2v-1.03h2z"/><path d="M200 244.24l4.64 14.26h-9.28z" stroke="#000" stroke-width="2"/><path d="M500 298v-28h100v-10.5" stroke="#000" stroke-width="2" fill="none"/><path d="M501 299h-2v-1.03h2z"/><path d="M600 244.24l4.64 14.26h-9.28z" stroke="#000" stroke-width="2"/><path d="M700 298v-28H600v-10.5" stroke="#000" stroke-width="2" fill="none"/><path d="M701 299h-2v-1.03h2z"/><path d="M600 244.24l4.64 14.26h-9.28z" stroke="#000" stroke-width="2"/><path d="M200 158v-28h200v-10.5" stroke="#000" stroke-width="2" fill="none"/><path d="M201 159h-2v-1.03h2z"/><path d="M400 104.24l4.64 14.26h-9.28z" stroke="#000" stroke-width="2"/><path d="M600 158v-28H400v-10.5" stroke="#000" stroke-width="2" fill="none"/><path d="M601 159h-2v-1.03h2z"/><path d="M400 104.24l4.64 14.26h-9.28z" stroke="#000" stroke-width="2"/></g></svg>